<?xml version="1.0" encoding="UTF-8"?>
<svg version="1.1" xmlns="http://www.w3.org/2000/svg" width="133" height="104">
<path d="M0 0 C43.89 0 87.78 0 133 0 C133 34.32 133 68.64 133 104 C89.11 104 45.22 104 0 104 C0 69.68 0 35.36 0 0 Z " fill="#FDF8EC" transform="translate(0,0)"/>
<path d="M0 0 C21.09880025 -1.36284116 21.09880025 -1.36284116 27.29296875 1.546875 C29.76529621 3.87877766 31.8355026 6.38019931 34 9 C36.42832614 11.25179764 38.96443575 13.37045235 41.5 15.5 C43.29288679 17.03644729 45.07654411 18.57833328 46.83509827 20.15402222 C49.00897021 22.06127583 49.00897021 22.06127583 51.53463745 23.80906677 C55.4827741 26.83312062 58.4996344 29.22299822 59.87860107 34.12026978 C60.15464839 37.78716936 60.12635664 41.32971171 59.9765625 45.00390625 C59.96241302 46.32293442 59.94826355 47.64196259 59.9336853 49.0009613 C59.89580292 52.47986268 59.79787344 55.95447594 59.68664551 59.43170166 C59.58367316 62.99097643 59.53798417 66.55097676 59.48828125 70.11132812 C59.38687431 77.07798471 59.19122803 84.03292539 59 91 C40.85 91 22.7 91 4 91 C4 84.4 4 77.8 4 71 C15.55 71 27.1 71 39 71 C39 53.84 39 36.68 39 19 C27.12 19 15.24 19 3 19 C3 24.94 3 30.88 3 37 C9.6 37 16.2 37 23 37 C23 43.6 23 50.2 23 57 C16.4 57 9.8 57 3 57 C3 50.73 3 44.46 3 38 C-3.6 38 -10.2 38 -17 38 C-17 54.83 -17 71.66 -17 89 C-20.80882678 88.04779331 -23.70198142 86.76610929 -27.1875 85 C-28.25355469 84.46375 -29.31960937 83.9275 -30.41796875 83.375 C-33 82 -33 82 -34 81 C-34.0928726 79.58774954 -34.11746772 78.17091066 -34.11352539 76.75561523 C-34.11344986 75.85475693 -34.11337433 74.95389862 -34.11329651 74.02574158 C-34.10813522 73.04658279 -34.10297394 72.06742401 -34.09765625 71.05859375 C-34.0962413 70.06118668 -34.09482635 69.0637796 -34.09336853 68.03614807 C-34.08775114 64.83656876 -34.07519571 61.63705831 -34.0625 58.4375 C-34.05748724 56.27408955 -34.05292395 54.11067801 -34.04882812 51.94726562 C-34.03777606 46.63148371 -34.02049979 41.31575354 -34 36 C-28.39 36 -22.78 36 -17 36 C-17 29.73 -17 23.46 -17 17 C-11.39 17 -5.78 17 0 17 C0 11.39 0 5.78 0 0 Z " fill="#2674A9" transform="translate(64,13)"/>
<path d="M0 0 C11.88 0 23.76 0 36 0 C36 17.16 36 34.32 36 52 C24.45 52 12.9 52 1 52 C1 58.6 1 65.2 1 72 C-6.26 72 -13.52 72 -21 72 C-20.01 71.505 -20.01 71.505 -19 71 C-19 53.84 -19 36.68 -19 19 C-12.73 19 -6.46 19 0 19 C0 25.27 0 31.54 0 38 C6.6 38 13.2 38 20 38 C20 31.4 20 24.8 20 18 C13.4 18 6.8 18 0 18 C0 12.06 0 6.12 0 0 Z " fill="#FDFCFA" transform="translate(67,32)"/>
<path d="M0 0 C5.28 0 10.56 0 16 0 C17.08273885 17.34315616 17.10970224 34.63160391 17 52 C13.2907377 51.15319574 10.21304423 49.72305286 6.8125 48 C5.74644531 47.46375 4.68039063 46.9275 3.58203125 46.375 C1 45 1 45 0 44 C-0.0927833 42.61839885 -0.11747043 41.23211962 -0.11352539 39.84741211 C-0.11341209 38.52615578 -0.11341209 38.52615578 -0.11329651 37.1782074 C-0.10555458 35.74227989 -0.10555458 35.74227989 -0.09765625 34.27734375 C-0.0962413 33.30213272 -0.09482635 32.32692169 -0.09336853 31.32215881 C-0.08775133 28.19390857 -0.07519593 25.06572877 -0.0625 21.9375 C-0.05748722 19.82226666 -0.05292393 17.70703219 -0.04882812 15.59179688 C-0.03777631 10.39450393 -0.02050016 5.19726392 0 0 Z " fill="#1E6FA6" transform="translate(30,50)"/>
<path d="M0 0 C6.27 0 12.54 0 19 0 C19 5.94 19 11.88 19 18 C12.73 18 6.46 18 0 18 C0 12.06 0 6.12 0 0 Z " fill="#1E6FA6" transform="translate(68,51)"/>
</svg>
