<svg enable-background="new 0 0 705 462" height="256.173769" viewBox="0 0 705 462" width="390.360029" xmlns="http://www.w3.org/2000/svg" xmlns:xlink="http://www.w3.org/1999/xlink"><linearGradient id="a" gradientUnits="userSpaceOnUse" x1="37.0134" x2="418.1239" y1="116.2011" y2="346.7232"><stop offset="0" stop-color="#f26bc7"/><stop offset=".4811" stop-color="#ffa97f"/><stop offset=".8215" stop-color="#ffc358"/><stop offset=".9976" stop-color="#f69a5c"/></linearGradient><linearGradient id="b" gradientUnits="userSpaceOnUse" x1="307.1012" x2="422.4" y1="448.3871" y2="302.8326"><stop offset=".0148" stop-color="#ff720c"/><stop offset=".5151" stop-color="#ffc100"/><stop offset=".993" stop-color="#fed899"/></linearGradient><linearGradient id="c" gradientUnits="userSpaceOnUse" x1="245.3344" x2="8.271" y1="-14.4355" y2="240.3523"><stop offset=".0279" stop-color="#fa916a"/><stop offset=".2636" stop-color="#f47896"/><stop offset=".9929" stop-color="#f5817d"/></linearGradient><linearGradient id="d" gradientUnits="userSpaceOnUse" x1="376.7972" x2="106.5548" y1="71.852" y2="408.2762"><stop offset=".003212341" stop-color="#ffe272" stop-opacity=".5"/><stop offset=".4116" stop-color="#ffe340"/><stop offset=".7505" stop-color="#ff8c5a"/><stop offset="1" stop-color="#f8806f"/></linearGradient><linearGradient id="e" gradientUnits="userSpaceOnUse" x1="385.6978" x2="420.2822" y1="73.6158" y2="326.7734"><stop offset=".0255" stop-color="#ffbf3a"/><stop offset=".4875" stop-color="#ffde78"/><stop offset=".9999" stop-color="#ffd055"/></linearGradient><linearGradient id="f" gradientUnits="userSpaceOnUse" x1="27.4934" x2="194.9131" y1="276.4992" y2="462.3635"><stop offset="0" stop-color="#f66929"/><stop offset=".473" stop-color="#fd7f2f"/><stop offset="1" stop-color="#ff9f2e"/></linearGradient><linearGradient id="g" gradientUnits="userSpaceOnUse" x1="123.3985" x2="351.9168" y1="54.8707" y2="42.683"><stop offset=".0232" stop-color="#f2552f"/><stop offset=".9947" stop-color="#fd7e2f"/></linearGradient><linearGradient id="h" gradientUnits="userSpaceOnUse" x1="233.7356" x2="401.8175" y1="440.4053" y2="342.6269"><stop offset="0" stop-color="#ff8533"/><stop offset=".4837" stop-color="#ff9c32"/><stop offset=".9923" stop-color="#ffb934"/></linearGradient><linearGradient id="i" gradientUnits="userSpaceOnUse" x1="371.0301" x2="430.8284" y1="348.4076" y2="252.2453"><stop offset="0" stop-color="#ff9f06"/><stop offset=".992" stop-color="#ffad02"/></linearGradient><linearGradient id="j" gradientUnits="userSpaceOnUse" x1="102.2551" x2="365.3553" y1="117.6799" y2="360.703"><stop offset="0" stop-color="#f2582f"/><stop offset=".3978" stop-color="#fc7c30"/><stop offset=".9943" stop-color="#ffbe15"/></linearGradient><linearGradient id="k" gradientUnits="userSpaceOnUse" x1="112.7459" x2="353.8065" y1="106.9044" y2="348.3216"><stop offset="0" stop-color="#eb2e1d"/><stop offset=".4251" stop-color="#ff800a"/><stop offset=".6969" stop-color="#ffa102"/><stop offset=".9943" stop-color="#ffca37"/></linearGradient><linearGradient id="l" gradientUnits="userSpaceOnUse" x1="159.9908" x2="338.5365" y1="80.1436" y2="375.8959"><stop offset=".0232" stop-color="#f75002"/><stop offset=".4749" stop-color="#ff9f00"/><stop offset=".9867" stop-color="#ffd552"/></linearGradient><linearGradient id="m" gradientUnits="userSpaceOnUse" x1="183.626" x2="305.938" y1="86.2011" y2="373.2358"><stop offset=".0221" stop-color="#ff8700"/><stop offset=".3709" stop-color="#ffb000"/><stop offset=".6583" stop-color="#ffb808"/><stop offset=".9964" stop-color="#ffcc3a"/></linearGradient><clipPath id="n"><path d="m248.76 80.03c-37.66-11.61-74.76 8.78-97.98 18.41s-49.27 30.3-52.67 98.26c-1.84 36.73 4.57 89.32 17.75 124.8 20.96 19.35 42.88 34.58 66.24 47.59 5.58 3.11 10.74 5.74 15.57 7.96 18.94.39 40.36-1.74 62.86-5.35 21.88-3.52 49.75-8.95 70.39-15.99 11.46-3.9 21.71-8.08 30.83-12.4 9.01-10.26 17.21-21.02 25.49-32.41 17.15-23.56 26.95-42.07 32.94-62.92 0 0 0 0 0-.01-6.6-18.53-16.29-38.17-42.01-71.67-45.87-59.74-91.75-84.66-129.41-96.27z"/></clipPath><radialGradient id="o" cx="-775.851" cy="4760.7837" gradientTransform="matrix(.3881 .3153 -.364 .4479 2183.1096 -1544.0485)" gradientUnits="userSpaceOnUse" r="93.0744"><stop offset=".0148" stop-color="#ffc72f"/><stop offset="1" stop-color="#ffc731" stop-opacity="0"/></radialGradient><clipPath id="p"><path d="m248.76 80.03c-37.66-11.61-74.76 8.78-97.98 18.41s-49.27 30.3-52.67 98.26c-1.84 36.73 4.57 89.32 17.75 124.8 20.96 19.35 42.88 34.58 66.24 47.59 5.58 3.11 10.74 5.74 15.57 7.96 18.94.39 40.36-1.74 62.86-5.35 21.88-3.52 49.75-8.95 70.39-15.99 11.46-3.9 21.71-8.08 30.83-12.4 9.01-10.26 17.21-21.02 25.49-32.41 17.15-23.56 26.95-42.07 32.94-62.92 0 0 0 0 0-.01-6.6-18.53-16.29-38.17-42.01-71.67-45.87-59.74-91.75-84.66-129.41-96.27z"/></clipPath><radialGradient id="q" cx="1282.298" cy="-1207.5348" gradientTransform="matrix(1.3428 -.5079 .4823 1.2752 -971.0467 2332.2249)" gradientUnits="userSpaceOnUse" r="117.1991"><stop offset="0" stop-color="#fe6900"/><stop offset=".2329" stop-color="#fe6d01" stop-opacity=".7671"/><stop offset=".4459" stop-color="#fe7803" stop-opacity=".5541"/><stop offset=".6512" stop-color="#fe8a07" stop-opacity=".3488"/><stop offset=".8504" stop-color="#ffa40d" stop-opacity=".1496"/><stop offset="1" stop-color="#ffbd12" stop-opacity="0"/></radialGradient><linearGradient id="r" gradientUnits="userSpaceOnUse" x1="325.4347" x2="406.2433" y1="379.5923" y2="320.6021"><stop offset="0" stop-color="#fea512"/><stop offset=".9923" stop-color="#ffab10"/></linearGradient><linearGradient id="s" gradientUnits="userSpaceOnUse" x1="201.5416" x2="306.7194" y1="129.0336" y2="350.5954"><stop offset=".0232" stop-color="#ffb100"/><stop offset=".5097" stop-color="#feb705"/><stop offset="1" stop-color="#ffc72f"/></linearGradient><clipPath id="t"><path d="m279.78 110.86c-27.05-14.23-74.5 9.02-119.1 39.38s-43.08 59.06-31.32 85.88c11.86 27.05 29.42 35.59 57.89 69.28s43.18 66.9 97.75 52.67 68.8-115.78 65.96-160.85c-2.85-45.08-44.13-72.13-71.18-86.36z"/></clipPath><radialGradient id="u" cx="1302.9452" cy="-178.7" gradientTransform="matrix(1.4041 0 0 1.4245 -1648.0759 402.4328)" gradientUnits="userSpaceOnUse" r="110.5826"><stop offset="0" stop-color="#ff7d00"/><stop offset=".2642" stop-color="#ff8101" stop-opacity=".7358"/><stop offset=".5058" stop-color="#ff8c04" stop-opacity=".4942"/><stop offset=".7386" stop-color="#ff9e09" stop-opacity=".2614"/><stop offset=".9646" stop-color="#ffb811" stop-opacity=".0354"/><stop offset="1" stop-color="#ffbd12" stop-opacity="0"/></radialGradient><clipPath id="v"><path d="m279.78 110.86c-27.05-14.23-74.5 9.02-119.1 39.38s-43.08 59.06-31.32 85.88c11.86 27.05 29.42 35.59 57.89 69.28s43.18 66.9 97.75 52.67 68.8-115.78 65.96-160.85c-2.85-45.08-44.13-72.13-71.18-86.36z"/></clipPath><radialGradient id="w" cx="283.31474429" cy="183.73736626" gradientUnits="userSpaceOnUse" r="75.2173509"><stop offset="0" stop-color="#ffb300"/><stop offset=".0285" stop-color="#ffb301" stop-opacity=".9715"/><stop offset="1" stop-color="#ffbd12" stop-opacity="0"/></radialGradient><path d="m172.46 11.55c-47.55 8.38-92.96 30.62-126.86 90.67-12.54 22.22-41 81.01-34.41 146.55 3.43 34.14 19.01 60.34 31.25 80.06 14.62 23.56 34.09 45.46 49.07 60.67 29.97 30.43 71.93 61.34 110.52 65.41 16.76 1.77 36.28.95 56.14-5.44 27.63-8.9 56.48-27.52 84.35-53.98 29.94-28.42 41.26-45.07 55.34-60.48 22.17-24.26 34.85-37.14 53.18-56.35 27.33-28.64 26.45-77.86 4.58-116.92-24.76-44.23-52.74-65.32-52.74-65.32s-46.89-48.59-113.23-72.73c-41.28-15.04-85.58-17.71-117.19-12.14z" fill="url(#a)" opacity=".5"/><path d="m344.25 414.83c-11.53 8.9-39.15 24.45-73.33 29.88 3.37.02 6.87-.01 10.54-.09 11.5-.25 23.83 1.01 37.39.6 37.72-1.13 48.58-23.48 70.03-52.92 13.04-17.89 21.44-35.3 28.45-56.85 2.85-8.77 5.67-18.41 8.13-30.07-2 2.11-4.04 4.26-6.13 6.48-17.35 45.27-44.47 79.33-75.08 102.97z" fill="url(#b)" opacity=".5"/><path d="m159.18 427.83c-42.17-18.47-51.41-23.48-87.52-59.87-.35-.35-.7-.72-1.06-1.08 11.52 22.06 22.38 43.47 45.1 53.98 6.58 3.04 13.94 5.37 21.61 7.14 11.08 2.54 22.8 3.89 33.73 4.38-4.26-1.45-8.25-2.97-11.86-4.55z" fill="#ffb770" opacity=".7"/><path d="m430.44 274.78c-.63 3.27-1.3 6.24-1.98 8.81-2.62 9.87-5.69 19.29-9.13 28.28 2.09-2.22 4.13-4.37 6.13-6.48 1.17-5.53 2.26-11.51 3.23-18.07.64-4.29 1.22-8.47 1.75-12.54z" fill="#ffe92c" opacity=".5"/><path d="m289.66 23.68c-16.39-5.97-33.26-9.98-49.61-12.31-24.85-3.54-48.52-3.18-67.59.18-15.4 2.71-30.58 6.88-45.21 13.32-21.23 16.96-40.82 40.73-56.69 66.84-21.98 36.16-42.45 85.98-48.26 112.69-3.32 15.26-5.14 45.62.93 57.61.12.25.26.48.38.73-3.48-29.63.23-61.96 16.3-93.6 2.88-9.19 6.56-17.9 10.98-25.94 9.95-18.11 25.33-35.57 46.73-49.97 15.3-14.81 31.85-27 51.68-37.9 31.19-24.42 60.97-36.72 79.82-38.78 7.15-.78 14.24-.88 21.23-.37 11.27.83 22.31 3.27 33.02 7.07 3.27.47 6.51 1.04 9.71 1.72-1.13-.45-2.27-.87-3.42-1.29z" fill="url(#c)" opacity=".5"/><path d="m250.35 16.17c-7-.51-14.08-.41-21.23.37-18.85 2.06-48.63 14.37-79.82 38.78 9.51-5.23 19.78-10.16 31.02-14.94 30.17-12.83 56.55-18.53 80.66-18.66 7.68-.04 15.13.48 22.4 1.52-10.72-3.8-21.76-6.24-33.03-7.07z" fill="#e94665"/><path d="m97.62 93.23c-21.4 14.4-36.78 31.86-46.73 49.97-4.42 8.04-8.09 16.74-10.98 25.94 3.34-6.59 7.22-13.15 11.69-19.64 15.51-22.6 30.09-40.86 46.02-56.27z" fill="#e94978"/><path d="m433.51 178.44c-.74-7.14-1.7-13.28-2.72-18.52-5.14-26.27-14.09-43.8-20.46-53.67-4.31-6.67-7.44-9.84-7.44-9.84s-.98-1.01-2.84-2.81c-10.85-10.47-51.9-47.71-106.97-68.65-3.2-.67-6.44-1.25-9.71-1.72-7.27-1.04-14.72-1.56-22.4-1.52-24.11.13-50.49 5.83-80.66 18.66-11.25 4.78-21.51 9.72-31.02 14.94-8.93 6.99-17.98 14.98-26.92 24-.23.24-.47.47-.7.71-24.67 25.08-44.6 53.16-59.25 79.42-15.77 28.27-25.49 55.31-29.06 81.13-.88 6.39-1.39 12.72-1.52 18.96-.13 6.39.24 12.63 1.06 18.81 3.06 22.97 12.52 44.97 27.26 69.53 3.66 6.1 6.98 12.39 10.24 18.63l1.26 1.47c36.12 36.38 45.36 41.4 87.52 59.87 3.61 1.58 7.6 3.1 11.86 4.55 30.04 10.17 73.99 16.44 99.86 12.33h.01.01c34.18-5.43 61.8-20.97 73.33-29.88 30.61-23.64 57.73-57.7 75.08-102.96 3.44-8.99 6.51-18.4 9.13-28.28.68-2.57 1.35-5.54 1.98-8.81 5.64-43.4 5.34-74.55 3.07-96.35z" fill="url(#d)" opacity=".7"/><path d="m359.32 53.64c-21.5-13.66-43.02-23.8-66.24-28.68 55.06 20.94 96.12 58.18 106.97 68.65 1.86 1.8 2.84 2.81 2.84 2.81s-11.92-22.67-43.57-42.78z" fill="#ffe1b1" opacity=".5"/><path d="m220.76 428.37c-7.74 1.7-15.62 2.92-23.63 3.6 24.86 8.33 43.71 12.56 73.78 12.74 16.64-7.04 33.61-17.43 50.42-30.76-10.76 5.24-22.4 9.67-34.97 13.51-23.83 7.26-45.23 6.82-65.6.91z" fill="#ff923a"/><path d="m433.51 178.44c-.74-7.14-1.7-13.28-2.72-18.52-5.14-26.27-14.09-43.8-20.46-53.67-4.31-6.67-7.44-9.84-7.44-9.84s-.98-1.01-2.84-2.81c-4.48-4.2-13.96-12.2-26.1-17.54-6.11-2.69-13.42-5.02-22.54-7.35 1.29 1.31 2.57 2.64 3.83 3.99 33.03 35.19 61.74 72.31 70.37 128.01 2.28 14.71-1.14 32.33-5.43 47.28 8.55 24 6.57 28.48 1.88 44.14-1.93 6.46-7.58 14.86-17.6 23.9-2.61 7.48-5.44 14.5-8.5 21.09.63-.71 1.27-1.41 1.91-2.12 8.19-8.97 15.09-16.38 21.46-23.13 3.44-8.99 6.51-18.4 9.13-28.28.68-2.57 1.35-5.54 1.98-8.81 5.64-43.39 5.34-74.54 3.07-96.34z" fill="url(#e)" opacity=".5"/><path d="m420.18 247.98v.1c-.12 12.89-6.83 42.43-15.72 67.93v.01c10.02-9.05 15.66-17.44 17.6-23.9 4.69-15.67 6.67-20.14-1.88-44.14z" fill="#ffc93d"/><path d="m122.38 79.32c8.94-9.02 17.99-17.01 26.92-24-19.83 10.9-36.38 23.1-51.68 37.9 7.03-4.73 14.72-9.14 23.08-13.12.55-.26 1.12-.52 1.68-.78z" fill="#f95700"/><path d="m70.4 366.5c-3.26-6.24-6.58-12.53-10.24-18.63-14.74-24.56-24.2-46.56-27.26-69.53-.82-6.18-1.19-12.42-1.06-18.81.12-6.25.63-12.57 1.52-18.96-2.66-25.15-.27-49.68 6.55-71.44-16.07 31.64-19.77 63.96-16.3 93.6 3.79 32.35 16.15 61.5 30.32 83.04 5.41 8.23 11.09 15.35 16.66 21.11-.06-.13-.13-.26-.19-.38z" fill="#f1838c"/><path d="m71.7 338.32c-9.54-12.86-17.25-26.41-23.23-40.29-8.14-18.88-13.08-38.35-15.11-57.46-.88 6.39-1.39 12.72-1.52 18.96-.13 6.39.24 12.63 1.06 18.81 3.06 22.97 12.52 44.97 27.26 69.53 3.66 6.1 6.98 12.39 10.24 18.63l1.26 1.47c36.12 36.38 45.36 41.4 87.52 59.87 3.61 1.58 7.6 3.1 11.86 4.55 9.64.44 18.67.22 26.09-.41-28.06-9.41-78.6-30.57-125.43-93.66z" fill="url(#f)"/><path d="m283.37 23.24c-7.27-1.04-14.72-1.56-22.4-1.52-24.11.13-50.49 5.83-80.66 18.66-11.25 4.78-21.51 9.72-31.02 14.94-8.93 6.99-17.98 14.98-26.92 24 37.23-17.34 90.44-28.91 126.02-28.27 16.68.3 40.16 4.4 66.69 9.71 5.35 1.07 10.32 2.08 14.95 3.06 8.1 1.71 15.16 3.3 21.37 4.89-20.11-20.49-43.19-36.65-68.03-45.47z" fill="url(#g)"/><path d="m33.36 240.57c3.56-25.82 13.29-52.86 29.06-81.13 14.65-26.26 34.58-54.34 59.25-79.41.23-.24.47-.47.7-.71-.56.26-1.13.52-1.68.78-8.36 3.98-16.04 8.39-23.08 13.12-15.93 15.42-30.51 33.67-46.02 56.26-4.46 6.5-8.34 13.06-11.69 19.64-6.81 21.77-9.2 46.31-6.54 71.45z" fill="#ed504d"/><path d="m404.46 316.03c-7.04 15.71-18.69 30.93-39.43 44.09-13.26 8.42-27.19 14.1-40.67 18.01-3.52 2.64-7.2 5.26-11.06 7.84-28.5 19.08-59.29 35.12-92.55 42.41 20.38 5.91 41.77 6.35 65.6-.92 12.56-3.83 24.21-8.26 34.97-13.51 32.78-15.98 57.34-39.53 74.64-76.83 3.06-6.6 5.89-13.61 8.5-21.09z" fill="url(#h)"/><path d="m420.18 248.08c0-.03 0-.07 0-.1-5.98 20.85-15.79 39.36-32.94 62.92-8.29 11.39-16.49 22.15-25.49 32.41 18.86-8.91 32.89-18.41 42.71-27.28v-.01c8.9-25.5 15.6-55.05 15.72-67.94z" fill="url(#i)"/><path d="m197.13 431.97c8.01-.68 15.89-1.9 23.63-3.6 33.26-7.29 64.05-23.33 92.55-42.41 3.86-2.58 7.53-5.2 11.06-7.84 14.65-11 26.6-22.54 37.39-34.82 6.76-7.69 13.06-15.67 19.28-23.98 2.07-2.77 4.14-5.58 6.21-8.42 17.15-23.56 26.95-42.07 32.94-62.92 0 0 0 0 0-.01 4.29-14.95 7.71-32.57 5.43-47.28-8.63-55.69-37.34-92.82-70.37-128.01-1.26-1.35-2.54-2.67-3.83-3.99-20.12-20.49-43.2-36.65-68.04-45.47-7.27-1.04-14.72-1.56-22.4-1.52-24.11.13-50.49 5.83-80.66 18.66-11.25 4.78-21.51 9.72-31.02 14.94-8.93 6.99-17.98 14.98-26.92 24-.23.24-.47.47-.7.71-24.68 25.09-44.61 53.17-59.26 79.43-15.77 28.27-25.49 55.31-29.06 81.13-.88 6.39-1.39 12.72-1.52 18.96-.13 6.39.24 12.63 1.06 18.81 3.06 22.97 12.52 44.97 27.26 69.53 3.66 6.1 6.98 12.39 10.24 18.63l1.26 1.47c36.12 36.38 45.36 41.4 87.52 59.87 3.61 1.58 7.6 3.1 11.86 4.55 9.64.42 18.67.2 26.09-.42" fill="url(#j)"/><path d="m425.61 200.7c-8.63-55.69-37.34-92.82-70.37-128.01-1.26-1.35-2.54-2.67-3.83-3.99-6.22-1.59-13.27-3.18-21.37-4.89-4.63-.97-9.6-1.99-14.95-3.06-26.53-5.31-50.01-9.41-66.69-9.71-35.58-.64-88.79 10.93-126.02 28.27-.23.24-.47.47-.7.71-24.68 25.08-44.61 53.16-59.26 79.42-15.77 28.27-25.49 55.31-29.06 81.13 2.02 19.11 6.97 38.58 15.11 57.46 5.98 13.87 13.69 27.43 23.23 40.29 46.83 63.09 97.37 84.25 125.43 93.65 8.01-.68 15.89-1.9 23.63-3.6 33.26-7.29 64.05-23.33 92.55-42.41 3.86-2.58 7.53-5.2 11.06-7.84 14.65-11 26.6-22.54 37.39-34.82 6.76-7.69 13.06-15.67 19.28-23.98 2.07-2.77 4.14-5.58 6.21-8.42 17.15-23.56 26.95-42.07 32.94-62.92 0 0 0 0 0-.01 4.28-14.94 7.7-32.56 5.42-47.27z" fill="url(#k)"/><path d="m407.08 153.98c-1.81-5.14-3.79-9.94-5.94-14.45-.22-.43-.44-.85-.66-1.26-6.41-11.89-13.21-21.82-20.28-30.2-6.6-7.82-13.42-14.29-20.38-19.73-16.97-13.25-34.73-20.36-51.82-25.97-36.62-12.02-84.67-9.52-135.62 11.83-48.26 20.22-75.73 44.83-90.22 66.76-14.5 21.94-20.06 42.02-28.8 64.47-5.72 14.69-11.9 26.71 18.88 67.52 14.16 18.77 28.64 34.71 43.63 48.55 20.96 19.35 42.88 34.58 66.24 47.59 5.58 3.11 10.74 5.74 15.57 7.96 29.83 13.73 46.64 11.83 66.83 10.35 14.83-1.09 36.68-2.55 59.86-9.27 14.65-11 26.6-22.54 37.39-34.82 9.01-10.26 17.21-21.02 25.49-32.41 17.15-23.56 26.95-42.07 32.94-62.92 0 0 0 0 0-.01.04-27.89-4.7-68.69-13.11-93.99z" fill="url(#l)"/><path d="m248.76 80.03c-37.66-11.61-74.76 8.78-97.98 18.41s-49.27 30.3-52.67 98.26c-1.84 36.73 4.57 89.32 17.75 124.8 20.96 19.35 42.88 34.58 66.24 47.59 5.58 3.11 10.74 5.74 15.57 7.96 18.94.39 40.36-1.74 62.86-5.35 21.88-3.52 49.75-8.95 70.39-15.99 11.46-3.9 21.71-8.08 30.83-12.4 9.01-10.26 17.21-21.02 25.49-32.41 17.15-23.56 26.95-42.07 32.94-62.92 0 0 0 0 0-.01-6.6-18.53-16.29-38.17-42.01-71.67-45.87-59.74-91.75-84.66-129.41-96.27z" fill="url(#m)"/><path clip-path="url(#n)" d="m185.42 373.13c18.71-23.03 17.7-54.83-2.25-71.04s-51.29-10.69-70 12.34-17.7 54.83 2.25 71.04 51.29 10.68 70-12.34z" fill="url(#o)"/><path clip-path="url(#p)" d="m325.82 81.59c-31.22-82.54-126.99-122.8-213.91-89.92s-132.07 126.43-100.85 208.97 126.99 122.8 213.91 89.92 132.07-126.43 100.85-208.97z" fill="url(#q)"/><path d="m115.87 321.5c.22.59.44 1.19.66 1.77 11.17 29.09 27.29 43.22 45.02 48.7 10.43 3.23 22.65 4.79 36.13 5.07-4.83-2.22-9.99-4.85-15.57-7.96-23.36-13.01-45.29-28.23-66.24-47.58z" fill="#fea500"/><path d="m324.36 378.13c13.48-3.91 27.41-9.59 40.67-18.01 20.74-13.17 32.4-28.38 39.43-44.09-9.82 8.87-23.85 18.36-42.71 27.28-10.78 12.27-22.73 23.82-37.39 34.82z" fill="url(#r)"/><path d="m279.78 110.86c-27.05-14.23-74.5 9.02-119.1 39.38s-43.08 59.06-31.32 85.88c11.86 27.05 29.42 35.59 57.89 69.28s43.18 66.9 97.75 52.67 68.8-115.78 65.96-160.85c-2.85-45.08-44.13-72.13-71.18-86.36z" fill="url(#s)"/><ellipse clip-path="url(#t)" cx="181.43" cy="147.88" fill="url(#u)" rx="155.27" ry="157.52"/><circle clip-path="url(#v)" cx="283.37" cy="183.73" fill="url(#w)" r="75.22"/><path d="m695.72 159.68h-32.54c-19.59 0-42.94-7.17-42.94-41.33v-98.6h18.98l-.01.88-.53 98.29c0 16.27 7.4 23.52 23.99 23.52h33.05z"/><path d="m524.3 159.68h-18.98v-139.93h45.36c31.77 0 49.99 18.22 49.99 49.99 0 29.9-20.09 49.99-49.99 49.99h-26.38zm.01-56.6h24.25c12.16 0 32.57-4.33 32.57-33.34 0-22.1-10.96-33.3-32.57-33.3h-24.25z"/><path d="m432.62 161.87c-30.88 0-50.06-17.79-50.06-46.43v-95.69h18.98v95.81c0 23.69 16.9 28.67 31.08 28.67s31.08-4.97 31.08-28.67v-95.81h18.98v95.69c0 28.64-19.18 46.43-50.06 46.43z"/><path d="m493.65 206.11c0 4.72-.74 8.88-2.21 12.48s-3.66 6.4-6.57 8.42c-2.9 2.01-6.54 3.02-10.92 3.02s-8.03-1.01-10.95-3.02c-2.92-2.02-5.11-4.83-6.57-8.45-1.45-3.62-2.18-7.79-2.18-12.51s.75-8.86 2.24-12.42c1.5-3.55 3.71-6.34 6.66-8.35s6.61-3.02 10.99-3.02c4.2 0 7.76.96 10.66 2.89s5.1 4.67 6.6 8.22 2.25 7.8 2.25 12.74zm-35.43 0c0 4.12.56 7.72 1.69 10.82s2.86 5.5 5.2 7.21 5.31 2.57 8.91 2.57 6.54-.86 8.84-2.57 4-4.11 5.1-7.18c1.1-3.08 1.66-6.7 1.66-10.85 0-6.41-1.29-11.43-3.87-15.05s-6.45-5.43-11.6-5.43c-3.6 0-6.58.86-8.94 2.57s-4.12 4.11-5.27 7.18c-1.14 3.08-1.72 6.65-1.72 10.73z"/><path d="m514.32 194.15c4.16 0 7.41 1.48 9.75 4.45s3.51 7.4 3.51 13.29-1.21 10.39-3.64 13.49-5.72 4.65-9.88 4.65c-2.86 0-5.16-.65-6.89-1.95s-3.01-2.86-3.83-4.68h-.26c.04 1.13.1 2.32.16 3.58.07 1.26.1 2.45.1 3.58v14.17h-3.71v-49.93h2.92l.58 6.5h.2c.82-1.91 2.12-3.57 3.9-5 1.78-1.44 4.14-2.15 7.09-2.15zm-.52 3.25c-3.55 0-6.19 1.2-7.9 3.61s-2.57 5.88-2.57 10.43v.65c0 4.94.82 8.63 2.47 11.08s4.23 3.67 7.74 3.67c3.29 0 5.81-1.32 7.54-3.96s2.6-6.33 2.6-11.05c0-4.64-.82-8.2-2.47-10.69-1.65-2.5-4.12-3.74-7.41-3.74z"/><path d="m546.82 194.15c2.77 0 5.11.68 7.02 2.05s3.34 3.24 4.29 5.62 1.43 5.11 1.43 8.19v2.6h-23.14c.04 4.55 1.05 8.05 3.02 10.5s4.8 3.67 8.48 3.67c2.04 0 3.81-.17 5.33-.52s3.16-.95 4.94-1.82v3.38c-1.6.78-3.21 1.34-4.81 1.69s-3.47.52-5.59.52c-4.9 0-8.66-1.58-11.28-4.75-2.62-3.16-3.93-7.48-3.93-12.94 0-3.51.56-6.64 1.69-9.39s2.74-4.91 4.84-6.47c2.1-1.55 4.67-2.33 7.71-2.33zm0 3.12c-2.95 0-5.33 1.06-7.15 3.18s-2.88 5.13-3.19 9.04h19.24c-.04-3.64-.78-6.59-2.21-8.84s-3.66-3.38-6.69-3.38z"/><path d="m579.83 194.15c3.73 0 6.57 1.02 8.52 3.05 1.95 2.04 2.92 5.22 2.92 9.55v22.62h-3.64v-22.36c0-3.29-.71-5.72-2.11-7.28-1.41-1.56-3.46-2.34-6.14-2.34-7.06 0-10.6 4.38-10.6 13.13v18.85h-3.64v-34.57h2.92l.58 5.98h.26c.87-1.91 2.22-3.49 4.06-4.75s4.15-1.88 6.87-1.88z"/><path d="m629.24 229.38-5.72-15.99h-18.07l-5.72 15.99h-3.9l17.03-46.54h3.64l16.64 46.54zm-6.9-19.37-5.72-16.77c-.17-.61-.48-1.56-.91-2.86s-.8-2.45-1.1-3.44c-.3 1.13-.64 2.26-1.01 3.41s-.71 2.13-1.01 2.96l-5.85 16.71h15.6z"/><path d="m648.47 194.15c2.51 0 4.62.52 6.3 1.56 1.69 1.04 3.05 2.49 4.09 4.36h.26l.52-5.27h2.99v35.69c0 4.55-1.11 8.1-3.32 10.66s-5.83 3.83-10.85 3.83c-2.43 0-4.58-.22-6.47-.65-1.88-.43-3.59-1-5.1-1.69v-3.58c1.52.82 3.28 1.48 5.3 1.98 2.01.5 4.17.75 6.47.75 3.51 0 6.11-1 7.8-2.99s2.54-4.7 2.54-8.12v-2.01c0-.91 0-1.82 0-2.73s.04-1.8.13-2.67h-.2c-1.91 4.51-5.53 6.76-10.86 6.76-4.16 0-7.42-1.52-9.78-4.55s-3.54-7.41-3.54-13.13c0-5.59 1.18-10.02 3.54-13.29 2.37-3.28 5.76-4.91 10.18-4.91zm.52 3.25c-3.47 0-6.07 1.31-7.8 3.93s-2.6 6.32-2.6 11.08c0 4.72.85 8.32 2.57 10.79 1.71 2.47 4.19 3.71 7.44 3.71 2.64 0 4.72-.58 6.24-1.75s2.59-2.77 3.22-4.81.94-4.35.94-6.96v-2.21c0-4.42-.76-7.82-2.28-10.2-1.51-2.39-4.09-3.58-7.73-3.58z"/><path d="m678.38 183.25v2.43h-4.32v13.41h-2.66v-13.41h-4.28v-2.43zm17.28 0v15.84h-2.75v-9.18c0-.24.01-.71.04-1.42.03-.7.06-1.24.09-1.6h-.18l-4.23 12.19h-2.25l-4.1-12.19h-.13c.03.48.06 1.02.09 1.62s.04.99.04 1.17v9.4h-2.56v-15.84h3.96l4 12.2 4.09-12.2h3.89z"/></svg>